<svg xmlns="http://www.w3.org/2000/svg" version="1.1" xmlns:xlink="http://www.w3.org/1999/xlink" xmlns:svgjs="http://svgjs.dev/svgjs" width="2000" height="323" viewBox="0 0 2000 323"><g transform="matrix(1,0,0,1,4.766655178546898,0.6512455330624789)"><svg viewBox="0 0 396 64" data-background-color="#ffffff" preserveAspectRatio="xMidYMid meet" height="323" width="2000" xmlns="http://www.w3.org/2000/svg" xmlns:xlink="http://www.w3.org/1999/xlink"><g id="tight-bounds" transform="matrix(1,0,0,1,0.2400000000000091,0.08736365113381339)"><svg viewBox="0 0 395.52 63.82527269773239" height="63.82527269773239" width="395.52"><g><svg viewBox="0 0 476.5450814758251 76.90033317647057" height="63.82527269773239" width="395.52"><g transform="matrix(1,0,0,1,81.02508147582512,4.520754823529408)"><svg viewBox="0 0 395.52 67.85882352941175" height="67.85882352941175" width="395.52"><g id="textblocktransform"><svg viewBox="0 0 395.52 67.85882352941175" height="67.85882352941175" width="395.52" id="textblock"><g><svg viewBox="0 0 395.52 67.85882352941175" height="67.85882352941175" width="395.52"><g transform="matrix(1,0,0,1,0,0)"><svg width="395.52" viewBox="0.5 -43.35 254.97 43.75" height="67.85882352941175" data-palette-color="#00d5e8"><path d="M14.2 0L5.6 0 5.6-34.7 0.5-34.7 0.5-42.95 19.3-42.95 19.3-34.7 14.2-34.7 14.2 0ZM21.7 0L21.7-42.95 34.9-42.95Q38.05-42.95 39.77-41.53 41.5-40.1 42.1-37.52 42.7-34.95 42.7-30.95L42.7-30.95Q42.7-27.3 41.75-25.25 40.8-23.2 38.45-22.4L38.45-22.4Q40.4-22 41.27-20.45 42.15-18.9 42.15-16.25L42.15-16.25 42.05 0 33.65 0 33.65-16.8Q33.65-18.6 32.95-19.1 32.25-19.6 30.4-19.6L30.4-19.6 30.4 0 21.7 0ZM30.45-27.05L32.5-27.05Q34.3-27.05 34.3-30.95L34.3-30.95Q34.3-32.65 34.15-33.5 34-34.35 33.6-34.68 33.2-35 32.45-35L32.45-35 30.45-35 30.45-27.05ZM52.75 0L44.4 0 48.55-42.95 63.1-42.95 67.2 0 59.05 0 58.45-6.95 53.25-6.95 52.75 0ZM55.5-35.65L53.9-13.8 57.8-13.8 55.9-35.65 55.5-35.65ZM84.44 0L72.69 0 67.39-43 75.59-43 78.74-13.75 81.54-43 89.74-43 84.44 0ZM109.94 0L92.19 0 92.19-42.95 109.39-42.95 109.39-34.65 100.94-34.65 100.94-26.3 109.04-26.3 109.04-18.2 100.94-18.2 100.94-8.35 109.94-8.35 109.94 0ZM130.24 0L112.79 0 112.79-42.95 121.39-42.95 121.39-7.3 130.24-7.3 130.24 0ZM154.53 0.4Q148.68 0.4 146.08-2.5 143.48-5.4 143.48-11.85L143.48-11.85 143.48-16.05 151.93-16.05 151.93-10.7Q151.93-7.5 153.98-7.5L153.98-7.5Q155.13-7.5 155.58-8.18 156.03-8.85 156.03-10.45L156.03-10.45Q156.03-12.55 155.53-13.93 155.03-15.3 154.26-16.23 153.48-17.15 151.48-19.1L151.48-19.1 147.78-22.8Q143.48-27 143.48-32.1L143.48-32.1Q143.48-37.6 146.01-40.48 148.53-43.35 153.38-43.35L153.38-43.35Q159.18-43.35 161.73-40.28 164.28-37.2 164.28-30.65L164.28-30.65 155.53-30.65 155.48-33.6Q155.48-34.45 155.01-34.95 154.53-35.45 153.68-35.45L153.68-35.45Q152.68-35.45 152.18-34.9 151.68-34.35 151.68-33.4L151.68-33.4Q151.68-31.3 154.08-29.05L154.08-29.05 159.08-24.25Q160.83-22.55 161.98-21.03 163.13-19.5 163.83-17.43 164.53-15.35 164.53-12.5L164.53-12.5Q164.53-6.15 162.21-2.88 159.88 0.4 154.53 0.4L154.53 0.4ZM179.68 0L171.08 0 171.08-34.7 165.98-34.7 165.98-42.95 184.78-42.95 184.78-34.7 179.68-34.7 179.68 0ZM197.43 0.4Q192.23 0.4 189.53-2.78 186.83-5.95 186.83-11.7L186.83-11.7 186.83-32.15Q186.83-37.7 189.53-40.53 192.23-43.35 197.43-43.35L197.43-43.35Q202.63-43.35 205.33-40.53 208.03-37.7 208.03-32.15L208.03-32.15 208.03-11.7Q208.03-5.9 205.33-2.75 202.63 0.4 197.43 0.4L197.43 0.4ZM197.43-7.5Q198.58-7.5 198.98-8.5 199.38-9.5 199.38-11.3L199.38-11.3 199.38-32.3Q199.38-33.7 199-34.58 198.63-35.45 197.48-35.45L197.48-35.45Q195.33-35.45 195.33-32.2L195.33-32.2 195.33-11.25Q195.33-9.4 195.78-8.45 196.23-7.5 197.43-7.5L197.43-7.5ZM211.48 0L211.48-42.95 224.68-42.95Q227.83-42.95 229.55-41.53 231.28-40.1 231.88-37.52 232.48-34.95 232.48-30.95L232.48-30.95Q232.48-27.3 231.53-25.25 230.58-23.2 228.23-22.4L228.23-22.4Q230.18-22 231.05-20.45 231.93-18.9 231.93-16.25L231.93-16.25 231.83 0 223.43 0 223.43-16.8Q223.43-18.6 222.73-19.1 222.03-19.6 220.18-19.6L220.18-19.6 220.18 0 211.48 0ZM220.23-27.05L222.28-27.05Q224.08-27.05 224.08-30.95L224.08-30.95Q224.08-32.65 223.93-33.5 223.78-34.35 223.38-34.68 222.98-35 222.23-35L222.23-35 220.23-35 220.23-27.05ZM248.62 0L240.52 0 240.52-14.15 233.67-42.95 242.17-42.95 244.57-28.4 246.97-42.95 255.47-42.95 248.62-14.15 248.62 0Z" opacity="1" transform="matrix(1,0,0,1,0,0)" fill="#00d5e8" class="wordmark-text-0" data-fill-palette-color="primary" id="text-0"></path></svg></g></svg></g></svg></g></svg></g><g><svg viewBox="0 0 65.00524185229571 76.90033317647057" height="76.90033317647057" width="65.00524185229571"><g><svg xmlns="http://www.w3.org/2000/svg" data-name="Layer 1" viewBox="12.29 5.409146990211769 75.41999999999999 89.22085300978823" x="0" y="0" height="76.90033317647057" width="65.00524185229571" class="icon-icon-0" data-fill-palette-color="accent" id="icon-0"><path d="M29.34 71.95A1.47 1.47 0 0 0 29.34 74.9H32.84V78.4A1.47 1.47 0 1 0 35.79 78.4V74.9H48.53V78.4A1.47 1.47 0 1 0 51.48 78.4V74.9H64.22V78.4A1.47 1.47 0 1 0 67.17 78.4V74.9H70.67A1.47 1.47 0 1 0 70.67 71.95H67.17V59.21H70.67A1.47 1.47 0 0 0 70.67 56.26H67.17V43.52H70.67A1.47 1.47 0 0 0 70.67 40.57H67.17V37.07A1.47 1.47 0 1 0 64.22 37.07V40.57H51.47V37.07A1.47 1.47 0 1 0 48.52 37.07V40.57H35.78V37.07A1.47 1.47 0 0 0 32.83 37.07V40.57H29.33A1.47 1.47 0 0 0 29.33 43.52H32.83V56.26H29.33A1.47 1.47 0 0 0 29.33 59.21H32.83V71.95ZM51.47 43.52H64.22V56.26H51.47ZM51.47 59.21H64.22V71.95H51.47ZM35.78 43.52H48.53V56.26H35.78ZM35.78 59.21H48.53V71.95H35.78Z" fill="#e8ce0f" data-fill-palette-color="accent"></path><path d="M78.16 29.92H21.84A1.47 1.47 0 0 0 20.37 31.39V84.07A1.47 1.47 0 0 0 21.84 85.54H78.16A1.47 1.47 0 0 0 79.63 84.07V31.4A1.47 1.47 0 0 0 78.16 29.92M76.68 82.59H23.32V32.87H76.68Z" fill="#e8ce0f" data-fill-palette-color="accent"></path><path d="M79.71 14.39H72.47V6.89A1.47 1.47 0 0 0 71 5.41H64.52A1.47 1.47 0 0 0 63 6.89V14.4H37V6.89A1.47 1.47 0 0 0 35.53 5.42H29A1.47 1.47 0 0 0 27.53 6.89V14.4H20.29A8 8 0 0 0 12.29 22.4V86.63A8 8 0 0 0 20.29 94.63H79.71A8 8 0 0 0 87.71 86.63V22.35A8 8 0 0 0 79.71 14.39M66 15.87V8.36H69.53V19.73H66ZM30.47 8.36H34V19.73H30.47V15.87ZM84.72 86.63A5 5 0 0 1 79.72 91.63H20.29A5 5 0 0 1 15.29 86.63V22.35A5 5 0 0 1 20.29 17.35H27.53V21.2A1.47 1.47 0 0 0 29 22.67H35.48A1.47 1.47 0 0 0 37 21.2V17.34H63V21.2A1.47 1.47 0 0 0 64.47 22.67H71A1.47 1.47 0 0 0 72.47 21.2V17.34H79.71A5 5 0 0 1 84.71 22.34Z" fill="#e8ce0f" data-fill-palette-color="accent"></path></svg></g></svg></g></svg></g><defs></defs></svg><rect width="395.52" height="63.82527269773239" fill="none" stroke="none" visibility="hidden"></rect></g></svg></g></svg>